<svg width="99" height="20" viewBox="0 0 99 20" fill="none" xmlns="http://www.w3.org/2000/svg">
<path d="M3.60293 0.232094V14.2721H0.182932V0.232094H3.60293ZM12.8814 2.99209C14.188 2.99209 15.228 3.41876 16.0014 4.27209C16.788 5.11209 17.1814 6.27209 17.1814 7.75209V14.2721H13.7814V8.21209C13.7814 7.46543 13.588 6.88543 13.2014 6.47209C12.8147 6.05876 12.2947 5.85209 11.6414 5.85209C10.988 5.85209 10.468 6.05876 10.0814 6.47209C9.6947 6.88543 9.50137 7.46543 9.50137 8.21209V14.2721H6.08137V3.11209H9.50137V4.59209C9.84804 4.09876 10.3147 3.71209 10.9014 3.43209C11.488 3.13876 12.148 2.99209 12.8814 2.99209ZM24.5779 11.0721L26.9979 3.11209H30.6379L26.6779 14.2721H22.4579L18.4979 3.11209H22.1579L24.5779 11.0721ZM42.5975 8.51209C42.5975 8.83209 42.5775 9.16543 42.5375 9.51209H34.7975C34.8508 10.2054 35.0708 10.7388 35.4575 11.1121C35.8575 11.4721 36.3441 11.6521 36.9175 11.6521C37.7708 11.6521 38.3641 11.2921 38.6975 10.5721H42.3375C42.1508 11.3054 41.8108 11.9654 41.3175 12.5521C40.8375 13.1388 40.2308 13.5988 39.4975 13.9321C38.7641 14.2654 37.9441 14.4321 37.0375 14.4321C35.9441 14.4321 34.9708 14.1988 34.1175 13.7321C33.2641 13.2654 32.5975 12.5988 32.1175 11.7321C31.6375 10.8654 31.3975 9.85209 31.3975 8.69209C31.3975 7.53209 31.6308 6.51876 32.0975 5.65209C32.5775 4.78543 33.2441 4.11876 34.0975 3.65209C34.9508 3.18543 35.9308 2.95209 37.0375 2.95209C38.1175 2.95209 39.0775 3.17876 39.9175 3.63209C40.7575 4.08543 41.4108 4.73209 41.8775 5.57209C42.3575 6.41209 42.5975 7.39209 42.5975 8.51209ZM39.0975 7.61209C39.0975 7.02543 38.8975 6.55876 38.4975 6.21209C38.0975 5.86543 37.5975 5.69209 36.9975 5.69209C36.4241 5.69209 35.9375 5.85876 35.5375 6.19209C35.1508 6.52543 34.9108 6.99876 34.8175 7.61209H39.0975ZM51.2017 2.99209C52.5083 2.99209 53.5483 3.41876 54.3217 4.27209C55.1083 5.11209 55.5017 6.27209 55.5017 7.75209V14.2721H52.1017V8.21209C52.1017 7.46543 51.9083 6.88543 51.5217 6.47209C51.135 6.05876 50.615 5.85209 49.9617 5.85209C49.3083 5.85209 48.7883 6.05876 48.4017 6.47209C48.015 6.88543 47.8217 7.46543 47.8217 8.21209V14.2721H44.4017V3.11209H47.8217V4.59209C48.1683 4.09876 48.635 3.71209 49.2217 3.43209C49.8083 3.13876 50.4683 2.99209 51.2017 2.99209ZM64.0982 11.3721V14.2721H62.3582C61.1182 14.2721 60.1516 13.9721 59.4582 13.3721C58.7649 12.7588 58.4182 11.7654 58.4182 10.3921V5.95209H57.0582V3.11209H58.4182V0.392095H61.8382V3.11209H64.0782V5.95209H61.8382V10.4321C61.8382 10.7654 61.9182 11.0054 62.0782 11.1521C62.2382 11.2988 62.5049 11.3721 62.8782 11.3721H64.0982ZM71.0832 14.4321C69.9899 14.4321 69.0032 14.1988 68.1232 13.7321C67.2566 13.2654 66.5699 12.5988 66.0632 11.7321C65.5699 10.8654 65.3232 9.85209 65.3232 8.69209C65.3232 7.54543 65.5766 6.53876 66.0832 5.67209C66.5899 4.79209 67.2832 4.11876 68.1632 3.65209C69.0432 3.18543 70.0299 2.95209 71.1232 2.95209C72.2166 2.95209 73.2032 3.18543 74.0832 3.65209C74.9632 4.11876 75.6566 4.79209 76.1632 5.67209C76.6699 6.53876 76.9232 7.54543 76.9232 8.69209C76.9232 9.83876 76.6632 10.8521 76.1432 11.7321C75.6366 12.5988 74.9366 13.2654 74.0432 13.7321C73.1632 14.1988 72.1766 14.4321 71.0832 14.4321ZM71.0832 11.4721C71.7366 11.4721 72.2899 11.2321 72.7432 10.7521C73.2099 10.2721 73.4432 9.58543 73.4432 8.69209C73.4432 7.79876 73.2166 7.11209 72.7632 6.63209C72.3232 6.15209 71.7766 5.91209 71.1232 5.91209C70.4566 5.91209 69.9032 6.15209 69.4632 6.63209C69.0232 7.09876 68.8032 7.78543 68.8032 8.69209C68.8032 9.58543 69.0166 10.2721 69.4432 10.7521C69.8832 11.2321 70.4299 11.4721 71.0832 11.4721ZM82.1576 4.97209C82.5576 4.35876 83.0576 3.87876 83.6576 3.53209C84.2576 3.17209 84.9243 2.99209 85.6576 2.99209V6.61209H84.7176C83.8643 6.61209 83.2243 6.79876 82.7976 7.17209C82.371 7.53209 82.1576 8.17209 82.1576 9.09209V14.2721H78.7376V3.11209H82.1576V4.97209ZM98.6923 3.11209L91.6923 19.5721H88.0123L90.5723 13.8921L86.0323 3.11209H89.8523L92.4323 10.0921L94.9923 3.11209H98.6923Z" fill="#FAFAFA"/>
</svg>
