<svg width="126" height="21" viewBox="0 0 126 21" fill="none" xmlns="http://www.w3.org/2000/svg">
<path d="M3.86025 1.23209V9.63209C3.86025 10.4721 4.06692 11.1188 4.48025 11.5721C4.89359 12.0254 5.50025 12.2521 6.30025 12.2521C7.10025 12.2521 7.71359 12.0254 8.14025 11.5721C8.56692 11.1188 8.78025 10.4721 8.78025 9.63209V1.23209H12.2003V9.61209C12.2003 10.8654 11.9336 11.9254 11.4003 12.7921C10.8669 13.6588 10.1469 14.3121 9.24025 14.7521C8.34692 15.1921 7.34692 15.4121 6.24025 15.4121C5.13359 15.4121 4.14025 15.1988 3.26025 14.7721C2.39359 14.3321 1.70692 13.6788 1.20025 12.8121C0.693587 11.9321 0.440254 10.8654 0.440254 9.61209V1.23209H3.86025ZM18.0218 5.69209C18.3552 5.17209 18.8152 4.75209 19.4018 4.43209C19.9885 4.11209 20.6752 3.95209 21.4618 3.95209C22.3818 3.95209 23.2152 4.18543 23.9618 4.65209C24.7085 5.11876 25.2952 5.78543 25.7218 6.65209C26.1618 7.51876 26.3818 8.52543 26.3818 9.67209C26.3818 10.8188 26.1618 11.8321 25.7218 12.7121C25.2952 13.5788 24.7085 14.2521 23.9618 14.7321C23.2152 15.1988 22.3818 15.4321 21.4618 15.4321C20.6885 15.4321 20.0018 15.2721 19.4018 14.9521C18.8152 14.6321 18.3552 14.2188 18.0218 13.7121V20.5921H14.6018V4.11209H18.0218V5.69209ZM22.9018 9.67209C22.9018 8.81876 22.6618 8.15209 22.1818 7.67209C21.7152 7.17876 21.1351 6.93209 20.4418 6.93209C19.7618 6.93209 19.1818 7.17876 18.7018 7.67209C18.2351 8.16543 18.0018 8.83876 18.0018 9.69209C18.0018 10.5454 18.2351 11.2188 18.7018 11.7121C19.1818 12.2054 19.7618 12.4521 20.4418 12.4521C21.1218 12.4521 21.7018 12.2054 22.1818 11.7121C22.6618 11.2054 22.9018 10.5254 22.9018 9.67209ZM27.496 9.67209C27.496 8.52543 27.7094 7.51876 28.136 6.65209C28.576 5.78543 29.1694 5.11876 29.916 4.65209C30.6627 4.18543 31.496 3.95209 32.416 3.95209C33.1494 3.95209 33.816 4.10543 34.416 4.41209C35.0294 4.71876 35.5094 5.13209 35.856 5.65209V0.472095H39.276V15.2721H35.856V13.6721C35.536 14.2054 35.076 14.6321 34.476 14.9521C33.8894 15.2721 33.2027 15.4321 32.416 15.4321C31.496 15.4321 30.6627 15.1988 29.916 14.7321C29.1694 14.2521 28.576 13.5788 28.136 12.7121C27.7094 11.8321 27.496 10.8188 27.496 9.67209ZM35.856 9.69209C35.856 8.83876 35.616 8.16543 35.136 7.67209C34.6694 7.17876 34.096 6.93209 33.416 6.93209C32.736 6.93209 32.156 7.17876 31.676 7.67209C31.2094 8.15209 30.976 8.81876 30.976 9.67209C30.976 10.5254 31.2094 11.2054 31.676 11.7121C32.156 12.2054 32.736 12.4521 33.416 12.4521C34.096 12.4521 34.6694 12.2054 35.136 11.7121C35.616 11.2188 35.856 10.5454 35.856 9.69209ZM41.0703 9.67209C41.0703 8.52543 41.2836 7.51876 41.7103 6.65209C42.1503 5.78543 42.7436 5.11876 43.4903 4.65209C44.2369 4.18543 45.0703 3.95209 45.9903 3.95209C46.7769 3.95209 47.4636 4.11209 48.0503 4.43209C48.6503 4.75209 49.1103 5.17209 49.4303 5.69209V4.11209H52.8503V15.2721H49.4303V13.6921C49.0969 14.2121 48.6303 14.6321 48.0303 14.9521C47.4436 15.2721 46.7569 15.4321 45.9703 15.4321C45.0636 15.4321 44.2369 15.1988 43.4903 14.7321C42.7436 14.2521 42.1503 13.5788 41.7103 12.7121C41.2836 11.8321 41.0703 10.8188 41.0703 9.67209ZM49.4303 9.69209C49.4303 8.83876 49.1903 8.16543 48.7103 7.67209C48.2436 7.17876 47.6703 6.93209 46.9903 6.93209C46.3103 6.93209 45.7303 7.17876 45.2503 7.67209C44.7836 8.15209 44.5503 8.81876 44.5503 9.67209C44.5503 10.5254 44.7836 11.2054 45.2503 11.7121C45.7303 12.2054 46.3103 12.4521 46.9903 12.4521C47.6703 12.4521 48.2436 12.2054 48.7103 11.7121C49.1903 11.2188 49.4303 10.5454 49.4303 9.69209ZM61.5445 12.3721V15.2721H59.8045C58.5645 15.2721 57.5978 14.9721 56.9045 14.3721C56.2111 13.7588 55.8645 12.7654 55.8645 11.3921V6.95209H54.5045V4.11209H55.8645V1.39209H59.2845V4.11209H61.5245V6.95209H59.2845V11.4321C59.2845 11.7654 59.3645 12.0054 59.5245 12.1521C59.6845 12.2988 59.9511 12.3721 60.3245 12.3721H61.5445ZM73.9695 9.51209C73.9695 9.83209 73.9495 10.1654 73.9095 10.5121H66.1695C66.2228 11.2054 66.4428 11.7388 66.8295 12.1121C67.2295 12.4721 67.7161 12.6521 68.2895 12.6521C69.1428 12.6521 69.7361 12.2921 70.0695 11.5721H73.7095C73.5228 12.3054 73.1828 12.9654 72.6895 13.5521C72.2095 14.1388 71.6028 14.5988 70.8695 14.9321C70.1361 15.2654 69.3161 15.4321 68.4095 15.4321C67.3161 15.4321 66.3428 15.1988 65.4895 14.7321C64.6361 14.2654 63.9695 13.5988 63.4895 12.7321C63.0095 11.8654 62.7695 10.8521 62.7695 9.69209C62.7695 8.53209 63.0028 7.51876 63.4695 6.65209C63.9495 5.78543 64.6161 5.11876 65.4695 4.65209C66.3228 4.18543 67.3028 3.95209 68.4095 3.95209C69.4895 3.95209 70.4495 4.17876 71.2895 4.63209C72.1295 5.08543 72.7828 5.73209 73.2495 6.57209C73.7295 7.41209 73.9695 8.39209 73.9695 9.51209ZM70.4695 8.61209C70.4695 8.02543 70.2695 7.55876 69.8695 7.21209C69.4695 6.86543 68.9695 6.69209 68.3695 6.69209C67.7961 6.69209 67.3095 6.85876 66.9095 7.19209C66.5228 7.52543 66.2828 7.99876 66.1895 8.61209H70.4695ZM83.432 1.23209V15.2721H80.012V1.23209H83.432ZM92.1304 12.3721V15.2721H90.3904C89.1504 15.2721 88.1837 14.9721 87.4904 14.3721C86.7971 13.7588 86.4504 12.7654 86.4504 11.3921V6.95209H85.0904V4.11209H86.4504V1.39209H89.8704V4.11209H92.1104V6.95209H89.8704V11.4321C89.8704 11.7654 89.9504 12.0054 90.1104 12.1521C90.2704 12.2988 90.5371 12.3721 90.9104 12.3721H92.1304ZM104.555 9.51209C104.555 9.83209 104.535 10.1654 104.495 10.5121H96.7554C96.8087 11.2054 97.0287 11.7388 97.4154 12.1121C97.8154 12.4721 98.3021 12.6521 98.8754 12.6521C99.7287 12.6521 100.322 12.2921 100.655 11.5721H104.295C104.109 12.3054 103.769 12.9654 103.275 13.5521C102.795 14.1388 102.189 14.5988 101.455 14.9321C100.722 15.2654 99.9021 15.4321 98.9954 15.4321C97.9021 15.4321 96.9287 15.1988 96.0754 14.7321C95.2221 14.2654 94.5554 13.5988 94.0754 12.7321C93.5954 11.8654 93.3554 10.8521 93.3554 9.69209C93.3554 8.53209 93.5887 7.51876 94.0554 6.65209C94.5354 5.78543 95.2021 5.11876 96.0554 4.65209C96.9087 4.18543 97.8887 3.95209 98.9954 3.95209C100.075 3.95209 101.035 4.17876 101.875 4.63209C102.715 5.08543 103.369 5.73209 103.835 6.57209C104.315 7.41209 104.555 8.39209 104.555 9.51209ZM101.055 8.61209C101.055 8.02543 100.855 7.55876 100.455 7.21209C100.055 6.86543 99.5554 6.69209 98.9554 6.69209C98.3821 6.69209 97.8954 6.85876 97.4954 7.19209C97.1087 7.52543 96.8687 7.99876 96.7754 8.61209H101.055ZM120.6 3.99209C121.986 3.99209 123.086 4.41209 123.9 5.25209C124.726 6.09209 125.14 7.25876 125.14 8.75209V15.2721H121.74V9.21209C121.74 8.49209 121.546 7.93876 121.16 7.55209C120.786 7.15209 120.266 6.95209 119.6 6.95209C118.933 6.95209 118.406 7.15209 118.02 7.55209C117.646 7.93876 117.46 8.49209 117.46 9.21209V15.2721H114.06V9.21209C114.06 8.49209 113.866 7.93876 113.48 7.55209C113.106 7.15209 112.586 6.95209 111.92 6.95209C111.253 6.95209 110.726 7.15209 110.34 7.55209C109.966 7.93876 109.78 8.49209 109.78 9.21209V15.2721H106.36V4.11209H109.78V5.51209C110.126 5.04543 110.58 4.67876 111.14 4.41209C111.7 4.13209 112.333 3.99209 113.04 3.99209C113.88 3.99209 114.626 4.17209 115.28 4.53209C115.946 4.89209 116.466 5.40543 116.84 6.07209C117.226 5.45876 117.753 4.95876 118.42 4.57209C119.086 4.18543 119.813 3.99209 120.6 3.99209Z" fill="#FAFAFA"/>
</svg>
