<svg width="93" height="16" viewBox="0 0 93 16" fill="none" xmlns="http://www.w3.org/2000/svg">
<path d="M9.88967 12.7921H4.64967L3.80967 15.2721H0.229668L5.30967 1.23209H9.26967L14.3497 15.2721H10.7297L9.88967 12.7921ZM9.00967 10.1521L7.26967 5.01209L5.54967 10.1521H9.00967ZM15.2158 9.67209C15.2158 8.52543 15.4291 7.51876 15.8558 6.65209C16.2958 5.78543 16.8891 5.11876 17.6358 4.65209C18.3824 4.18543 19.2158 3.95209 20.1358 3.95209C20.8691 3.95209 21.5358 4.10543 22.1358 4.41209C22.7491 4.71876 23.2291 5.13209 23.5758 5.65209V0.472095H26.9958V15.2721H23.5758V13.6721C23.2558 14.2054 22.7958 14.6321 22.1958 14.9521C21.6091 15.2721 20.9224 15.4321 20.1358 15.4321C19.2158 15.4321 18.3824 15.1988 17.6358 14.7321C16.8891 14.2521 16.2958 13.5788 15.8558 12.7121C15.4291 11.8321 15.2158 10.8188 15.2158 9.67209ZM23.5758 9.69209C23.5758 8.83876 23.3358 8.16543 22.8558 7.67209C22.3891 7.17876 21.8158 6.93209 21.1358 6.93209C20.4558 6.93209 19.8758 7.17876 19.3958 7.67209C18.9291 8.15209 18.6958 8.81876 18.6958 9.67209C18.6958 10.5254 18.9291 11.2054 19.3958 11.7121C19.8758 12.2054 20.4558 12.4521 21.1358 12.4521C21.8158 12.4521 22.3891 12.2054 22.8558 11.7121C23.3358 11.2188 23.5758 10.5454 23.5758 9.69209ZM28.79 9.67209C28.79 8.52543 29.0033 7.51876 29.43 6.65209C29.87 5.78543 30.4633 5.11876 31.21 4.65209C31.9566 4.18543 32.79 3.95209 33.71 3.95209C34.4433 3.95209 35.11 4.10543 35.71 4.41209C36.3233 4.71876 36.8033 5.13209 37.15 5.65209V0.472095H40.57V15.2721H37.15V13.6721C36.83 14.2054 36.37 14.6321 35.77 14.9521C35.1833 15.2721 34.4966 15.4321 33.71 15.4321C32.79 15.4321 31.9566 15.1988 31.21 14.7321C30.4633 14.2521 29.87 13.5788 29.43 12.7121C29.0033 11.8321 28.79 10.8188 28.79 9.67209ZM37.15 9.69209C37.15 8.83876 36.91 8.16543 36.43 7.67209C35.9633 7.17876 35.39 6.93209 34.71 6.93209C34.03 6.93209 33.45 7.17876 32.97 7.67209C32.5033 8.15209 32.27 8.81876 32.27 9.67209C32.27 10.5254 32.5033 11.2054 32.97 11.7121C33.45 12.2054 34.03 12.4521 34.71 12.4521C35.39 12.4521 35.9633 12.2054 36.43 11.7121C36.91 11.2188 37.15 10.5454 37.15 9.69209ZM50.7025 1.23209V15.2721H47.2825V1.23209H50.7025ZM59.4009 12.3721V15.2721H57.6609C56.4209 15.2721 55.4543 14.9721 54.7609 14.3721C54.0676 13.7588 53.7209 12.7654 53.7209 11.3921V6.95209H52.3609V4.11209H53.7209V1.39209H57.1409V4.11209H59.3809V6.95209H57.1409V11.4321C57.1409 11.7654 57.2209 12.0054 57.3809 12.1521C57.5409 12.2988 57.8076 12.3721 58.1809 12.3721H59.4009ZM71.8259 9.51209C71.8259 9.83209 71.8059 10.1654 71.7659 10.5121H64.0259C64.0793 11.2054 64.2993 11.7388 64.6859 12.1121C65.0859 12.4721 65.5726 12.6521 66.1459 12.6521C66.9993 12.6521 67.5926 12.2921 67.9259 11.5721H71.5659C71.3793 12.3054 71.0393 12.9654 70.5459 13.5521C70.0659 14.1388 69.4593 14.5988 68.7259 14.9321C67.9926 15.2654 67.1726 15.4321 66.2659 15.4321C65.1726 15.4321 64.1993 15.1988 63.3459 14.7321C62.4926 14.2654 61.8259 13.5988 61.3459 12.7321C60.8659 11.8654 60.6259 10.8521 60.6259 9.69209C60.6259 8.53209 60.8593 7.51876 61.3259 6.65209C61.8059 5.78543 62.4726 5.11876 63.3259 4.65209C64.1793 4.18543 65.1593 3.95209 66.2659 3.95209C67.3459 3.95209 68.3059 4.17876 69.1459 4.63209C69.9859 5.08543 70.6393 5.73209 71.1059 6.57209C71.5859 7.41209 71.8259 8.39209 71.8259 9.51209ZM68.3259 8.61209C68.3259 8.02543 68.1259 7.55876 67.7259 7.21209C67.3259 6.86543 66.8259 6.69209 66.2259 6.69209C65.6526 6.69209 65.1659 6.85876 64.7659 7.19209C64.3793 7.52543 64.1393 7.99876 64.0459 8.61209H68.3259ZM87.8701 3.99209C89.2568 3.99209 90.3568 4.41209 91.1701 5.25209C91.9968 6.09209 92.4101 7.25876 92.4101 8.75209V15.2721H89.0101V9.21209C89.0101 8.49209 88.8168 7.93876 88.4301 7.55209C88.0568 7.15209 87.5368 6.95209 86.8701 6.95209C86.2035 6.95209 85.6768 7.15209 85.2901 7.55209C84.9168 7.93876 84.7301 8.49209 84.7301 9.21209V15.2721H81.3301V9.21209C81.3301 8.49209 81.1368 7.93876 80.7501 7.55209C80.3768 7.15209 79.8568 6.95209 79.1901 6.95209C78.5235 6.95209 77.9968 7.15209 77.6101 7.55209C77.2368 7.93876 77.0501 8.49209 77.0501 9.21209V15.2721H73.6301V4.11209H77.0501V5.51209C77.3968 5.04543 77.8501 4.67876 78.4101 4.41209C78.9701 4.13209 79.6035 3.99209 80.3101 3.99209C81.1501 3.99209 81.8968 4.17209 82.5501 4.53209C83.2168 4.89209 83.7368 5.40543 84.1101 6.07209C84.4968 5.45876 85.0235 4.95876 85.6901 4.57209C86.3568 4.18543 87.0835 3.99209 87.8701 3.99209Z" fill="#FAFAFA"/>
</svg>
