<svg width="51" height="17" viewBox="0 0 51 17" fill="none" xmlns="http://www.w3.org/2000/svg">
<path d="M13.5393 2.23209L8.67934 11.6321V16.2721H5.25934V11.6321L0.399338 2.23209H4.27934L6.99934 8.11209L9.69934 2.23209H13.5393ZM16.6373 3.95209C16.0373 3.95209 15.544 3.77876 15.1573 3.43209C14.784 3.07209 14.5973 2.63209 14.5973 2.11209C14.5973 1.57876 14.784 1.13876 15.1573 0.792094C15.544 0.432094 16.0373 0.252094 16.6373 0.252094C17.224 0.252094 17.704 0.432094 18.0773 0.792094C18.464 1.13876 18.6573 1.57876 18.6573 2.11209C18.6573 2.63209 18.464 3.07209 18.0773 3.43209C17.704 3.77876 17.224 3.95209 16.6373 3.95209ZM18.3373 5.11209V16.2721H14.9173V5.11209H18.3373ZM31.3357 10.5121C31.3357 10.8321 31.3157 11.1654 31.2757 11.5121H23.5357C23.5891 12.2054 23.8091 12.7388 24.1957 13.1121C24.5957 13.4721 25.0824 13.6521 25.6557 13.6521C26.5091 13.6521 27.1024 13.2921 27.4357 12.5721H31.0757C30.8891 13.3054 30.5491 13.9654 30.0557 14.5521C29.5757 15.1388 28.9691 15.5988 28.2357 15.9321C27.5024 16.2654 26.6824 16.4321 25.7757 16.4321C24.6824 16.4321 23.7091 16.1988 22.8557 15.7321C22.0024 15.2654 21.3357 14.5988 20.8557 13.7321C20.3757 12.8654 20.1357 11.8521 20.1357 10.6921C20.1357 9.53209 20.3691 8.51876 20.8357 7.65209C21.3157 6.78543 21.9824 6.11876 22.8357 5.65209C23.6891 5.18543 24.6691 4.95209 25.7757 4.95209C26.8557 4.95209 27.8157 5.17876 28.6557 5.63209C29.4957 6.08543 30.1491 6.73209 30.6157 7.57209C31.0957 8.41209 31.3357 9.39209 31.3357 10.5121ZM27.8357 9.61209C27.8357 9.02543 27.6357 8.55876 27.2357 8.21209C26.8357 7.86543 26.3357 7.69209 25.7357 7.69209C25.1624 7.69209 24.6757 7.85876 24.2757 8.19209C23.8891 8.52543 23.6491 8.99876 23.5557 9.61209H27.8357ZM36.56 1.47209V16.2721H33.14V1.47209H36.56ZM38.3584 10.6721C38.3584 9.52543 38.5717 8.51876 38.9984 7.65209C39.4384 6.78543 40.0317 6.11876 40.7784 5.65209C41.5251 5.18543 42.3584 4.95209 43.2784 4.95209C44.0117 4.95209 44.6784 5.10543 45.2784 5.41209C45.8917 5.71876 46.3717 6.13209 46.7184 6.65209V1.47209H50.1384V16.2721H46.7184V14.6721C46.3984 15.2054 45.9384 15.6321 45.3384 15.9521C44.7517 16.2721 44.0651 16.4321 43.2784 16.4321C42.3584 16.4321 41.5251 16.1988 40.7784 15.7321C40.0317 15.2521 39.4384 14.5788 38.9984 13.7121C38.5717 12.8321 38.3584 11.8188 38.3584 10.6721ZM46.7184 10.6921C46.7184 9.83876 46.4784 9.16543 45.9984 8.67209C45.5317 8.17876 44.9584 7.93209 44.2784 7.93209C43.5984 7.93209 43.0184 8.17876 42.5384 8.67209C42.0717 9.15209 41.8384 9.81876 41.8384 10.6721C41.8384 11.5254 42.0717 12.2054 42.5384 12.7121C43.0184 13.2054 43.5984 13.4521 44.2784 13.4521C44.9584 13.4521 45.5317 13.2054 45.9984 12.7121C46.4784 12.2188 46.7184 11.5454 46.7184 10.6921Z" fill="#FAFAFA"/>
</svg>
