<svg width="92" height="25" viewBox="0 0 92 25" fill="none" xmlns="http://www.w3.org/2000/svg">
<path d="M17.2358 17.0251L22.2358 12.0251L17.2358 7.02505L15.8258 8.43505L18.4058 11.0251H9.23584V13.0251H18.4058L15.8258 15.6151L17.2358 17.0251Z" fill="#F4FEFF"/>
<path d="M19.2358 19.0251H5.23584V5.02505H19.2358V7.02505H21.2358V5.02505C21.2358 3.92505 20.3458 3.02505 19.2358 3.02505H5.23584C4.13584 3.02505 3.23584 3.92505 3.23584 5.02505V19.0251C3.23584 20.1251 4.13584 21.0251 5.23584 21.0251H19.2358C20.3458 21.0251 21.2358 20.1251 21.2358 19.0251V17.0251H19.2358V19.0251Z" fill="#F4FEFF"/>
<path d="M34.6339 17.0251V6.11596H36.9404V15.1234H41.6173V17.0251H34.6339ZM46.7988 17.1849C45.9714 17.1849 45.2558 17.0091 44.6521 16.6575C44.052 16.3024 43.5886 15.8088 43.2619 15.1767C42.9352 14.541 42.7718 13.8042 42.7718 12.9661C42.7718 12.1209 42.9352 11.3823 43.2619 10.7502C43.5886 10.1145 44.052 9.62094 44.6521 9.26937C45.2558 8.91426 45.9714 8.7367 46.7988 8.7367C47.6262 8.7367 48.34 8.91426 48.9401 9.26937C49.5438 9.62094 50.009 10.1145 50.3357 10.7502C50.6624 11.3823 50.8258 12.1209 50.8258 12.9661C50.8258 13.8042 50.6624 14.541 50.3357 15.1767C50.009 15.8088 49.5438 16.3024 48.9401 16.6575C48.34 17.0091 47.6262 17.1849 46.7988 17.1849ZM46.8095 15.427C47.1859 15.427 47.5002 15.3205 47.7523 15.1074C48.0044 14.8908 48.1944 14.5961 48.3222 14.2232C48.4536 13.8503 48.5193 13.426 48.5193 12.9501C48.5193 12.4743 48.4536 12.0499 48.3222 11.677C48.1944 11.3042 48.0044 11.0094 47.7523 10.7928C47.5002 10.5762 47.1859 10.4679 46.8095 10.4679C46.4295 10.4679 46.1099 10.5762 45.8507 10.7928C45.595 11.0094 45.4014 11.3042 45.27 11.677C45.1422 12.0499 45.0783 12.4743 45.0783 12.9501C45.0783 13.426 45.1422 13.8503 45.27 14.2232C45.4014 14.5961 45.595 14.8908 45.8507 15.1074C46.1099 15.3205 46.4295 15.427 46.8095 15.427ZM55.9874 20.2637C55.2523 20.2637 54.622 20.1625 54.0964 19.9601C53.5744 19.7612 53.1589 19.4895 52.8499 19.1451C52.541 18.8006 52.3404 18.4135 52.248 17.9839L54.3467 17.7015C54.4107 17.8649 54.5119 18.0176 54.6504 18.1596C54.7889 18.3017 54.9717 18.4153 55.199 18.5006C55.4298 18.5893 55.7104 18.6337 56.0406 18.6337C56.5342 18.6337 56.9409 18.513 57.2605 18.2715C57.5836 18.0336 57.7452 17.6341 57.7452 17.073V15.5762H57.6493C57.5499 15.8035 57.4007 16.0183 57.2019 16.2207C57.003 16.4231 56.7473 16.5883 56.4348 16.7161C56.1223 16.8439 55.7494 16.9079 55.3162 16.9079C54.7019 16.9079 54.1426 16.7658 53.6383 16.4817C53.1376 16.1941 52.7381 15.7555 52.4398 15.166C52.145 14.573 51.9977 13.8237 51.9977 12.9182C51.9977 11.9913 52.1486 11.2172 52.4504 10.5957C52.7523 9.97427 53.1536 9.50907 53.6543 9.20013C54.1585 8.89118 54.7107 8.7367 55.3109 8.7367C55.769 8.7367 56.1525 8.81483 56.4614 8.97108C56.7704 9.12378 57.019 9.31554 57.2072 9.54636C57.3989 9.77363 57.5463 9.99736 57.6493 10.2175H57.7345V8.84324H59.9877V17.105C59.9877 17.801 59.8173 18.3834 59.4764 18.8521C59.1355 19.3209 58.6632 19.6724 58.0595 19.9068C57.4593 20.1447 56.7686 20.2637 55.9874 20.2637ZM56.0353 15.2033C56.4011 15.2033 56.71 15.1128 56.9622 14.9317C57.2178 14.747 57.4132 14.4842 57.5481 14.1433C57.6866 13.7988 57.7558 13.3869 57.7558 12.9075C57.7558 12.4281 57.6884 12.0126 57.5534 11.6611C57.4185 11.3059 57.2232 11.0307 56.9675 10.8354C56.7118 10.6401 56.4011 10.5425 56.0353 10.5425C55.6624 10.5425 55.3482 10.6437 55.0925 10.8461C54.8368 11.0449 54.6433 11.3219 54.5119 11.677C54.3805 12.0322 54.3148 12.4423 54.3148 12.9075C54.3148 13.3798 54.3805 13.7882 54.5119 14.1327C54.6468 14.4736 54.8404 14.7381 55.0925 14.9263C55.3482 15.111 55.6624 15.2033 56.0353 15.2033ZM75.3326 11.5705C75.3326 12.7601 75.1071 13.7722 74.6561 14.6067C74.2087 15.4412 73.5979 16.0787 72.8238 16.519C72.0532 16.9558 71.1867 17.1742 70.2243 17.1742C69.2549 17.1742 68.3848 16.954 67.6142 16.5137C66.8436 16.0734 66.2346 15.4359 65.7872 14.6014C65.3397 13.7669 65.116 12.7566 65.116 11.5705C65.116 10.3809 65.3397 9.3688 65.7872 8.53429C66.2346 7.69977 66.8436 7.06412 67.6142 6.62733C68.3848 6.18699 69.2549 5.96682 70.2243 5.96682C71.1867 5.96682 72.0532 6.18699 72.8238 6.62733C73.5979 7.06412 74.2087 7.69977 74.6561 8.53429C75.1071 9.3688 75.3326 10.3809 75.3326 11.5705ZM72.9942 11.5705C72.9942 10.7999 72.8788 10.1501 72.648 9.62094C72.4207 9.09182 72.0993 8.69054 71.6838 8.4171C71.2684 8.14366 70.7818 8.00694 70.2243 8.00694C69.6668 8.00694 69.1803 8.14366 68.7648 8.4171C68.3493 8.69054 68.0262 9.09182 67.7953 9.62094C67.5681 10.1501 67.4544 10.7999 67.4544 11.5705C67.4544 12.3411 67.5681 12.991 67.7953 13.5201C68.0262 14.0492 68.3493 14.4505 68.7648 14.7239C69.1803 14.9974 69.6668 15.1341 70.2243 15.1341C70.7818 15.1341 71.2684 14.9974 71.6838 14.7239C72.0993 14.4505 72.4207 14.0492 72.648 13.5201C72.8788 12.991 72.9942 12.3411 72.9942 11.5705ZM82.2454 13.5414V8.84324H84.5145V17.0251H82.3359V15.5389H82.2507C82.066 16.0183 81.7589 16.4036 81.3292 16.6948C80.903 16.986 80.3828 17.1316 79.7684 17.1316C79.2216 17.1316 78.7404 17.0073 78.3249 16.7587C77.9094 16.5101 77.5845 16.1568 77.3501 15.6987C77.1193 15.2406 77.0021 14.692 76.9986 14.0528V8.84324H79.2677V13.6479C79.2713 14.1309 79.4009 14.5126 79.6566 14.7932C79.9123 15.0737 80.2549 15.214 80.6846 15.214C80.9581 15.214 81.2138 15.1518 81.4517 15.0275C81.6896 14.8997 81.8814 14.7115 82.027 14.4629C82.1761 14.2143 82.2489 13.9072 82.2454 13.5414ZM90.6815 8.84324V10.5478H85.7543V8.84324H90.6815ZM86.8729 6.88301H89.1421V14.5109C89.1421 14.7204 89.1741 14.8837 89.238 15.0009C89.3019 15.1145 89.3907 15.1944 89.5043 15.2406C89.6215 15.2868 89.7565 15.3099 89.9092 15.3099C90.0157 15.3099 90.1222 15.301 90.2288 15.2832C90.3353 15.2619 90.417 15.2459 90.4738 15.2353L90.8307 16.9238C90.717 16.9594 90.5572 17.0002 90.3513 17.0464C90.1453 17.0961 89.895 17.1263 89.6002 17.1369C89.0533 17.1582 88.5739 17.0854 88.162 16.9185C87.7536 16.7516 87.4358 16.4924 87.2085 16.1408C86.9812 15.7893 86.8694 15.3454 86.8729 14.8091V6.88301Z" fill="#F4FEFF"/>
</svg>
